<svg width="286.65" height="48.45" viewBox="0 0 286.65 48.45" xmlns="http://www.w3.org/2000/svg"><g id="svgGroup" stroke-linecap="round" fill-rule="evenodd" font-size="9pt" stroke="#ff0d00" stroke-width="0.5mm" fill="none" style="stroke:#ff0d00;stroke-width:0.5mm;fill:none"><path d="M 97.8 36.95 L 97.8 2 L 103.8 2 L 120.15 26.35 L 120.15 2 L 126.5 2 L 126.5 36.95 L 120.5 36.95 L 104.15 12.55 L 104.15 36.95 L 97.8 36.95 Z M 162.25 4.6 L 162.25 10.65 Q 160.05 8.75 157.2 7.9 A 19.815 19.815 0 0 0 153.859 7.225 A 26.51 26.51 0 0 0 150.75 7.05 A 14.675 14.675 0 0 0 146.514 7.646 A 13.044 13.044 0 0 0 144.225 8.575 Q 141.3 10.1 139.6 12.925 A 11.857 11.857 0 0 0 138.013 17.628 A 15.109 15.109 0 0 0 137.9 19.5 A 15.27 15.27 0 0 0 138.252 22.848 A 11.887 11.887 0 0 0 139.5 26.125 Q 141.1 28.95 143.95 30.475 A 12.914 12.914 0 0 0 148.648 31.902 A 16.136 16.136 0 0 0 150.45 32 A 18.766 18.766 0 0 0 153.122 31.821 Q 154.504 31.622 155.656 31.201 A 9.642 9.642 0 0 0 156.8 30.7 L 156.8 22.85 L 150.9 22.85 L 150.9 17.8 L 163.15 17.8 L 163.15 34.1 A 15.74 15.74 0 0 1 157.989 36.684 Q 155.771 37.351 153.11 37.58 A 33.933 33.933 0 0 1 150.2 37.7 A 23.169 23.169 0 0 1 144.86 37.108 A 18.774 18.774 0 0 1 140.45 35.475 Q 136.2 33.25 133.85 29.125 A 17.798 17.798 0 0 1 131.729 22.803 A 23.032 23.032 0 0 1 131.5 19.5 Q 131.5 14 133.85 9.875 Q 136.2 5.75 140.45 3.5 A 19.321 19.321 0 0 1 147.125 1.438 A 24.48 24.48 0 0 1 150.2 1.25 A 30.122 30.122 0 0 1 153.645 1.438 A 22.101 22.101 0 0 1 156.9 2.05 Q 159.85 2.85 162.25 4.6 Z M 21.3 36.95 L 21.3 2 L 27.65 2 L 27.65 16.5 L 44.45 16.5 L 44.45 2 L 50.75 2 L 50.75 36.95 L 44.45 36.95 L 44.45 21.75 L 27.65 21.75 L 27.65 36.95 L 21.3 36.95 Z M 187.45 36.95 L 187.45 0 L 193.75 0 L 193.75 16 A 11.144 11.144 0 0 1 201.883 12.215 A 14.833 14.833 0 0 1 202.55 12.2 Q 207.4 12.2 209.8 14.825 A 8.909 8.909 0 0 1 211.916 19.013 A 12.983 12.983 0 0 1 212.2 21.8 L 212.2 36.95 L 205.9 36.95 L 205.9 22.4 A 8.137 8.137 0 0 0 205.67 20.37 Q 204.996 17.763 202.353 17.267 A 7.336 7.336 0 0 0 201 17.15 Q 198.85 17.15 196.95 18.175 A 8.267 8.267 0 0 0 194.437 20.289 A 10.306 10.306 0 0 0 193.75 21.25 L 193.75 36.95 L 187.45 36.95 Z M 253.2 46.8 L 253.2 41.8 A 20.326 20.326 0 0 0 258.892 43.317 A 25.654 25.654 0 0 0 262 43.5 A 16.552 16.552 0 0 0 264.221 43.362 Q 266.926 42.994 268.325 41.65 A 5.855 5.855 0 0 0 269.841 39.132 Q 270.135 38.198 270.218 37.066 A 12.581 12.581 0 0 0 270.25 36.15 L 270.25 34.6 A 10.92 10.92 0 0 1 266.706 36.746 A 12.722 12.722 0 0 1 266.2 36.925 A 15.622 15.622 0 0 1 262.15 37.673 A 18.158 18.158 0 0 1 261.15 37.7 A 14.15 14.15 0 0 1 256.861 37.065 A 12.733 12.733 0 0 1 254.55 36.075 Q 251.6 34.45 249.95 31.55 A 12.638 12.638 0 0 1 248.391 26.611 A 15.798 15.798 0 0 1 248.3 24.9 A 15.052 15.052 0 0 1 248.706 21.331 A 12.09 12.09 0 0 1 249.925 18.225 Q 251.55 15.35 254.425 13.775 Q 257.3 12.2 260.95 12.2 A 18.911 18.911 0 0 1 263.372 12.347 Q 264.928 12.548 266.2 13.025 A 11.717 11.717 0 0 1 268.76 14.384 A 15.397 15.397 0 0 1 270.45 15.75 L 270.45 12.95 L 276.55 12.95 L 276.55 35.5 Q 276.55 41.7 272.975 45.075 Q 270.237 47.66 265.254 48.265 A 27.041 27.041 0 0 1 262 48.45 Q 259.6 48.45 257.2 48 Q 254.8 47.55 253.2 46.8 Z M 68.282 36.855 A 20.859 20.859 0 0 0 74.3 37.7 A 22.726 22.726 0 0 0 75.585 37.664 A 19.054 19.054 0 0 0 83.725 35.4 Q 87.95 33.1 90.375 28.975 Q 92.8 24.85 92.8 19.5 A 22.113 22.113 0 0 0 92.7 17.376 A 17.822 17.822 0 0 0 90.375 10 Q 87.95 5.85 83.725 3.55 A 18.39 18.39 0 0 0 80.669 2.229 A 20.271 20.271 0 0 0 74.3 1.25 A 22.935 22.935 0 0 0 72.684 1.306 A 19.038 19.038 0 0 0 64.825 3.55 Q 60.6 5.85 58.175 10 A 17.152 17.152 0 0 0 56.475 14.007 A 20.121 20.121 0 0 0 55.75 19.5 A 22.113 22.113 0 0 0 55.85 21.624 A 17.822 17.822 0 0 0 58.175 29 Q 60.6 33.15 64.825 35.425 A 18.438 18.438 0 0 0 68.282 36.855 Z M 0 36.75 L 0 31.45 A 8.164 8.164 0 0 0 1.649 31.941 Q 2.738 32.15 4.05 32.15 Q 8.95 32.15 8.95 27.5 L 8.95 2 L 15.3 2 L 15.3 27.85 Q 15.3 31.884 13.339 34.399 A 8.248 8.248 0 0 1 12.75 35.075 A 8.341 8.341 0 0 1 8.672 37.354 Q 7.359 37.678 5.808 37.699 A 15.88 15.88 0 0 1 5.6 37.7 A 18.079 18.079 0 0 1 3.28 37.545 A 20.893 20.893 0 0 1 2.475 37.425 A 17.37 17.37 0 0 1 1.557 37.246 Q 0.591 37.028 0 36.75 Z M 166.15 36.75 L 166.15 31.45 A 8.164 8.164 0 0 0 167.799 31.941 Q 168.888 32.15 170.2 32.15 Q 175.1 32.15 175.1 27.5 L 175.1 2 L 181.45 2 L 181.45 27.85 Q 181.45 31.884 179.489 34.399 A 8.248 8.248 0 0 1 178.9 35.075 A 8.341 8.341 0 0 1 174.822 37.354 Q 173.509 37.678 171.958 37.699 A 15.88 15.88 0 0 1 171.75 37.7 A 18.079 18.079 0 0 1 169.43 37.545 A 20.893 20.893 0 0 1 168.625 37.425 A 17.37 17.37 0 0 1 167.707 37.246 Q 166.741 37.028 166.15 36.75 Z M 230.25 37.7 Q 226.05 37.7 222.875 36.175 Q 219.7 34.65 217.95 31.775 A 11.871 11.871 0 0 1 216.388 27.426 A 15.701 15.701 0 0 1 216.2 24.95 A 14.509 14.509 0 0 1 216.618 21.396 A 11.664 11.664 0 0 1 217.925 18.225 A 11.447 11.447 0 0 1 222.553 13.926 A 13.794 13.794 0 0 1 222.85 13.775 A 15.095 15.095 0 0 1 227.241 12.421 A 19.711 19.711 0 0 1 230.25 12.2 A 19.05 19.05 0 0 1 233.962 12.546 A 14.595 14.595 0 0 1 237.625 13.775 A 11.959 11.959 0 0 1 241.52 16.789 A 11.567 11.567 0 0 1 242.55 18.225 A 11.943 11.943 0 0 1 244.162 22.861 A 15.308 15.308 0 0 1 244.3 24.95 A 14.963 14.963 0 0 1 243.922 28.39 A 11.568 11.568 0 0 1 242.55 31.775 Q 240.8 34.65 237.625 36.175 A 15.195 15.195 0 0 1 233.375 37.467 A 20.169 20.169 0 0 1 230.25 37.7 Z M 74.3 31.95 A 12.712 12.712 0 0 0 78.803 31.163 A 11.937 11.937 0 0 0 80.4 30.425 Q 83.15 28.9 84.775 26.075 Q 86.4 23.25 86.4 19.5 Q 86.4 15.8 84.8 12.975 Q 83.2 10.15 80.45 8.6 A 12.141 12.141 0 0 0 74.958 7.065 A 14.515 14.515 0 0 0 74.3 7.05 A 12.874 12.874 0 0 0 69.92 7.783 A 11.954 11.954 0 0 0 68.125 8.6 Q 65.35 10.15 63.75 12.975 A 12.281 12.281 0 0 0 62.277 17.488 A 15.566 15.566 0 0 0 62.15 19.5 A 14.634 14.634 0 0 0 62.555 23.012 A 11.749 11.749 0 0 0 63.775 26.075 Q 65.4 28.9 68.175 30.425 A 12.461 12.461 0 0 0 74.091 31.949 A 14.602 14.602 0 0 0 74.3 31.95 Z M 270.25 27.35 L 270.25 22.5 Q 269.4 20.05 267.3 18.6 Q 265.2 17.15 262.5 17.15 A 8.797 8.797 0 0 0 259.777 17.554 A 7.272 7.272 0 0 0 256.9 19.3 A 7.215 7.215 0 0 0 254.756 23.828 A 9.917 9.917 0 0 0 254.7 24.9 A 8.842 8.842 0 0 0 255.092 27.588 A 7.228 7.228 0 0 0 256.9 30.55 A 7.425 7.425 0 0 0 261.771 32.724 A 9.934 9.934 0 0 0 262.5 32.75 Q 265.2 32.75 267.325 31.275 Q 269.45 29.8 270.25 27.35 Z M 230.25 32.75 Q 233.7 32.75 235.75 30.575 Q 237.8 28.4 237.8 24.95 Q 237.8 21.3 235.775 19.225 A 6.709 6.709 0 0 0 232.222 17.338 A 9.85 9.85 0 0 0 230.25 17.15 A 9.534 9.534 0 0 0 227.925 17.418 A 6.626 6.626 0 0 0 224.725 19.225 A 6.86 6.86 0 0 0 222.985 22.434 Q 222.718 23.51 222.701 24.78 A 12.96 12.96 0 0 0 222.7 24.95 A 9.468 9.468 0 0 0 223.035 27.531 A 7.237 7.237 0 0 0 224.75 30.575 A 6.8 6.8 0 0 0 228.808 32.646 A 9.635 9.635 0 0 0 230.25 32.75 Z M 284.1 36.95 Q 283.05 36.95 282.3 36.225 A 2.367 2.367 0 0 1 281.551 34.515 A 2.898 2.898 0 0 1 281.55 34.45 A 2.659 2.659 0 0 1 281.749 33.409 A 2.52 2.52 0 0 1 282.3 32.6 A 2.453 2.453 0 0 1 284.067 31.85 A 2.919 2.919 0 0 1 284.1 31.85 A 2.451 2.451 0 0 1 285.876 32.577 A 3.009 3.009 0 0 1 285.9 32.6 A 2.508 2.508 0 0 1 286.65 34.416 A 3.201 3.201 0 0 1 286.65 34.45 Q 286.65 35.5 285.9 36.225 Q 285.15 36.95 284.1 36.95 Z" vector-effect="non-scaling-stroke"/></g></svg>